<svg xmlns="http://www.w3.org/2000/svg" width="66.629" height="67.991" viewBox="0 0 66.629 67.991">
  <g id="Group_20" data-name="Group 20" transform="translate(-124.381 -3288.065)">
    <path id="Path_42" data-name="Path 42" d="M162.1,73.977,162.147,49l-1.115,0h-.065a33.669,33.669,0,0,0-32.861,26.387l-5.4-.01H122.7a2.844,2.844,0,0,0-2.841,2.835l-.017,8.71a2.844,2.844,0,0,0,2.836,2.846l5.41.01a33.7,33.7,0,0,0,32.818,26.51l1.115,0,.047-24.982a8.734,8.734,0,0,0,.033-17.326ZM122.682,87.533a.618.618,0,0,1-.609-.612l.017-8.71a.619.619,0,0,1,.61-.609h0l4.995.009a34.013,34.013,0,0,0-.013,9.931Zm6.872-4.952a31.442,31.442,0,0,1,24.564-30.61,5.841,5.841,0,0,1-.968,2.037,7.781,7.781,0,0,0,0,9.06,5.57,5.57,0,0,1,0,6.63,7.781,7.781,0,0,0,0,9.06,5.57,5.57,0,0,1,0,6.63,7.781,7.781,0,0,0,0,9.06,5.569,5.569,0,0,1,0,6.631,7.784,7.784,0,0,0,0,9.06,5.2,5.2,0,0,1,1.092,3.2A31.438,31.438,0,0,1,129.554,82.58Zm26.884,31.149a1.123,1.123,0,0,0,.035-.275,7.363,7.363,0,0,0-1.454-4.53,5.569,5.569,0,0,1,0-6.631,7.783,7.783,0,0,0,0-9.061,5.57,5.57,0,0,1,0-6.63,7.781,7.781,0,0,0,0-9.06,5.57,5.57,0,0,1,0-6.63,7.781,7.781,0,0,0,0-9.06,5.57,5.57,0,0,1,0-6.63,7.42,7.42,0,0,0,1.414-3.672,31.877,31.877,0,0,1,3.478-.307l-.059,31.395-.016,8.736-.042,22.659a31.708,31.708,0,0,1-3.355-.3Zm9.122-26.481a6.456,6.456,0,0,1-3.489,1.8L162.1,76.23a6.508,6.508,0,0,1,3.465,11.019Z" transform="translate(4.889 3239.421)" fill="#ac854e" stroke="#ac854e" stroke-width="0.7"/>
    <path id="Path_43" data-name="Path 43" d="M482.27,147.961l6.587-6.563,1.574,1.58-6.587,6.563Z" transform="translate(-304.754 3160.475)" fill="#ac854e" stroke="#ac854e" stroke-width="0.7"/>
    <path id="Path_44" data-name="Path 44" d="M508.64,271.348l0-2.23,9.3.018,0,2.23Z" transform="translate(-327.283 3051.357)" fill="#ac854e" stroke="#ac854e" stroke-width="0.7"/>
    <path id="Path_45" data-name="Path 45" d="M481.92,363.885l1.58-1.574,6.563,6.587-1.58,1.574Z" transform="translate(-304.455 2971.736)" fill="#ac854e" stroke="#ac854e" stroke-width="0.7"/>
  </g>
</svg>
