<svg xmlns="http://www.w3.org/2000/svg" width="73.834" height="70.356" viewBox="0 0 73.834 70.356">
  <path id="Path_679" data-name="Path 679" d="M152.168,50.828a3.322,3.322,0,0,0-2.652-2.307l-20.361-3.3-8.812-18.643a3.344,3.344,0,0,0-2.959-1.91,3.292,3.292,0,0,0-3.015,1.814l-9.434,18.34L84.473,47.45a3.333,3.333,0,0,0-1.935,5.65L97.072,67.743,93.25,88.009a3.327,3.327,0,0,0,4.769,3.585l18.419-9.3,18.829,9.1a3.388,3.388,0,0,0,1.6.406,3.33,3.33,0,0,0,3.292-3.835l-3.888-19.585,15-14.151a3.346,3.346,0,0,0,.9-3.4Z" transform="translate(-80.021 -23.166)" fill="none" stroke="#ac854e" stroke-width="3"/>
</svg>
